<?xml version="1.0" encoding="utf-8"?>
<!-- Generator: Adobe Illustrator 18.1.0, SVG Export Plug-In . SVG Version: 6.00 Build 0)  -->
<svg version="1.1" xmlns="http://www.w3.org/2000/svg" xmlns:xlink="http://www.w3.org/1999/xlink" x="0px" y="0px"
	 viewBox="0 0 612 792" enable-background="new 0 0 612 792" xml:space="preserve">
<g id="Layer_25" display="none">

	<g id="Schip">
		<path fill="#FFFFFF" stroke="#000000" stroke-width="4" stroke-miterlimit="10" d="M241.1,623.1H121.6c0,0,7.8-147.6,83.3-151.3
			c15.7-35.5,49.3-75.6,49.3-75.6L241.1,623.1z"/>
		<path fill="#CECED0" stroke="#000000" stroke-width="4" stroke-miterlimit="10" d="M408.3,621.2h119.5c0,0-7.8-147.6-83.3-151.3
			c-15.7-35.5-49.3-75.6-49.3-75.6L408.3,621.2z"/>
		<line fill="none" stroke="#000000" stroke-width="3" stroke-miterlimit="10" x1="124.6" y1="595.7" x2="525.1" y2="595.6"/>
		<path fill="#FFFFFF" d="M326.1,115.1V681h-91.5V234.6C234.6,234.6,266.3,120.7,326.1,115.1z"/>
		<path fill="#CECED0" d="M324.2,115.1V681h91.5V234.6C415.7,234.6,384,120.7,324.2,115.1z"/>
		<polygon fill="#242121" points="325,185.1 325,151.4 377.3,205.6 377.3,237.4 		"/>
		<polygon fill="#434344" points="325,185.2 325,151.6 272.8,205.7 272.8,237.5 		"/>
		<rect x="328" y="533.4" fill="#242121" width="9.3" height="149.4"/>
		<rect x="314.9" y="533.4" fill="#5D5D5D" width="13.1" height="149.4"/>
		<polygon fill="#A5A5A5" points="339.2,542.8 376.5,682.8 339.2,682.8 		"/>
		<g id="Layer_6">
			<polygon fill="#242121" points="271.9,682.8 253.2,738.9 402.7,738.9 376.5,682.8 			"/>
			<rect x="262.6" y="738.7" fill="#3B3A3D" width="65.4" height="13.1"/>
			<rect x="325.2" y="738.8" fill="#242121" width="65.4" height="13.1"/>
		</g>
		<line fill="none" stroke="#000000" stroke-width="3" stroke-miterlimit="10" x1="189.7" y1="621.2" x2="189.7" y2="595.7"/>
		<line fill="none" stroke="#000000" stroke-width="3" stroke-miterlimit="10" x1="461.5" y1="621.2" x2="461.5" y2="595.6"/>
		<g id="Versiering">
			<text transform="matrix(1.0497 0 0 1 167.3313 538.4456)" font-family="'ErasITC-Bold'" font-size="16.1463">USA</text>
			<text transform="matrix(1 0 0 1 434.4172 538.4456)" font-family="'ErasITC-Bold'" font-size="15.521">NASA</text>
			
				
</svg>
