<?xml version="1.0" encoding="utf-8"?>
<!-- Generator: Adobe Illustrator 18.1.0, SVG Export Plug-In . SVG Version: 6.00 Build 0)  -->
<svg version="1.1" id="Layer_1" xmlns="http://www.w3.org/2000/svg" xmlns:xlink="http://www.w3.org/1999/xlink" x="0px" y="0px"
	 viewBox="0 0 755 129.1" enable-background="new 0 0 755 129.1" xml:space="preserve">
<path fill="#F26C3C" d="M381.9,15.4c1.5-0.1,2-0.4,1.8-1c-0.1-0.3-0.5-0.7-1-0.8c-1-0.2-1.9,0.1-1.9,0.7
	C380.8,14.7,381.6,15.1,381.9,15.4z"/>
<path fill="#F58144" d="M537.9,19.3c0,0.1,0.1,0.1,0.1,0.2c0,0,0.1,0,0.1-0.1C538,19.4,538,19.4,537.9,19.3z"/>
<path fill="#A3572A" d="M237.1,123.2c-10.4-6.4-24.3-8-39.1-7.5c-11.4,0.4-22.5,1.8-31.2,8.1c5.9-1.3,9.8-2.2,13.8-3
	c22.4-4.2,45.4-0.8,57.2,8.2c1.3,0,2.5,0,3.8,0C241.5,126.8,239.8,124.9,237.1,123.2z"/>
<path fill="#A25729" d="M755,119.1c0-1,0-2,0-3c-19.3,0-33,5-35.9,13c3.8,0,7.5,0,11.3,0C733.9,122.5,744.3,120.7,755,119.1z"/>
<path fill="#DC773E" d="M755,119.1c-10.7,1.6-21.1,3.4-24.5,10c1.9,0,3.8,0,5.7,0c6.3,0,15,1.3,18.2-0.4
	C757.4,127.1,755,122.4,755,119.1z"/>
<path fill="#A3572A" d="M530.3,118.1c-5.7-1.3-11.5,0.7-17.3,0c-1.2,0.4-2.4,0.7-3.6,1.1c0,0,0,0,0,0c-4.7,2.9-7.3,6.4-9.2,10.1
	c2.5,0,5,0,7.5,0C512,123.6,520.9,120.7,530.3,118.1z"/>
<path fill="#A5582A" d="M0,115.1c0,2.7,0,5.3,0,8c2.4,1.8,1.8,4,1.9,6c0.6,0,1.3,0,1.9,0C5.9,124.2,9,119.2,0,115.1z"/>
<path fill="#DE8845" d="M750.4,99c0,1.2,2.8,0.9,4.6,1.1c0-0.7,0-1.3,0-2C753.3,98.3,750.5,97.8,750.4,99z"/>
<path fill="#C36A37" d="M0,123.1c0.9,2-2,4.3,1.9,6C1.8,127.1,2.4,124.9,0,123.1z"/>
<path fill="#DE753E" d="M58.5,75c0.4-0.1,0.8-0.3,1.2-0.4C59.2,74.7,58.8,74.8,58.5,75z"/>
<path fill="#F9BB5B" d="M424.6,113.1L424.6,113.1c-0.6-0.7-1.3-1.3-1.9-2c-19.9,8.4-43.6,9.5-62.3,3l0,0c-3-0.7-5.6-1.6-7.6-3l0,0
	c0,0,0,0,0,0c-0.6,0.3-1.3,0.7-1.9,1c0,0,0,0,0,0c0,0,0,0,0,0c7.1,6.7,19.9,8.1,32.3,9.9c3.7,0,7.4,0,11,0l0,0
	C405.6,120.2,417.5,118.9,424.6,113.1z"/>
<path fill="#AD5D2E" d="M570,110.4c-20.7-1.1-40.7-0.6-57,7.6c5.7,0.7,11.5-1.3,17.3,0c0,0,0,0,0,0c10.5-1.6,21-3.3,32.2-3
	c3.9-4,11.3-2.3,17.2-3l0,0c0,0,0,0,0,0c-0.1-0.3-0.3-0.5-0.5-0.8c0,0,0,0,0,0C576.1,111,573.1,110.6,570,110.4z"/>
<path fill="#A4582A" d="M562.5,115c16.9,0.4,32.1,3.3,45.5,8.9c-5.9-6.5-15.5-10.3-28.3-11.9l0,0C573.7,112.7,566.3,111,562.5,115z"
	/>
<path fill="#A6592A" d="M743.6,86.2C743.6,86.2,743.6,86.2,743.6,86.2C743.6,86.2,743.6,86.2,743.6,86.2c0.6-0.3,1.2-0.7,1.8-1
	c0,0,0,0,0,0c-13-1-16.4-0.2-17.1,4.6C733,87.4,737.6,85.8,743.6,86.2z"/>
<path fill="#DFA04F" d="M668.8,111.7c4.1-0.2,6.4-0.8,5.5-4.4C671.9,109.3,668.9,109.8,668.8,111.7z"/>
<path fill="#BE6734" d="M743.6,86.2c1.7,0.4,3.7,1.5,4.9,0c0.6-0.7-1.8-0.9-3.2-1.1l0,0C744.8,85.5,744.2,85.9,743.6,86.2
	C743.6,86.2,743.6,86.2,743.6,86.2z"/>
<path fill="#B66231" d="M653.6,104.1c0.2,0.2,1.1,0.2,1.6,0.1c0.5-0.1,0.8-0.4,1.2-0.7c-0.6-0.1-1.1-0.4-1.6-0.4
	C653.7,103.3,653,103.6,653.6,104.1z"/>
<g>
	<path fill="#DE753D" d="M394.3,122.1L394.3,122.1c-3.7,0-7.4,0-11,0c-53.2-0.7-105.4-5-156.3-13.4c-3.3-0.5-6.6-1-9.9-1.6h0
		c0,0,0,0,0,0c-13.1-1.9-25.3-5.2-37.7-8l0,0l0,0c-6.3-0.2-12.8,0.7-18.9-0.9c0,0,0,0,0,0s0,0,0,0c-12.5-0.8-16.4-2.9-18.7-10.1
		c0,0,0,0,0,0c-1.3-0.7-2.6-1.3-3.9-2c0,0,0,0,0,0c0,0,0,0,0,0c-1.7-0.4-6.6,0.9-3.9-2c-1.9-0.7-3.8-1.3-5.6-2
		c-7.5,1.3-7.2-1.5-7.5-4c-1.9-1-3.8-2-5.7-3l0,0c-4.4-3.7-8.8-7.3-13.2-11c-1.2-3-4-5.8-3.8-9c-0.4-0.2-0.6-0.5-0.8-0.7
		c-0.9-1-1.1-2.2-1-3.3c0.2-2.7-1-5.5,1.7-8c0,0,0,0,0,0c0-3.9,3.5-7.2,5.9-10.7c0,0,0,0,0,0c0,0,0.3-0.3,0.3-0.3
		c-7.4,1.3-13.4,4.1-21.2,5c-10.3,3.7-20.6,7.3-31.7,10.3c-2,0.9-4,1.9-6.1,2.8c-1.4,0.5-2.8,1.1-4.2,1.6c0,0,0,0,0,0c0,0,0,0,0,0
		c0.8,0.5,1.5,0.9,2.3,1.4c2,0.2,4.8,0.2,4,1.8c-0.8,1.5-3.3,1.6-5.9,1.2c-2-0.7-4.1-1.4-6.2-2.2c0,0,0,0,0,0c0,0,0,0,0,0
		c-3.4,0.8-6.3,2-8.8,3.4c-5.6,1.9-10.9,4-15.6,6.5c-0.6-0.1-1.2-0.2-1.8-0.3c-6.1-0.2-6.8,2.6-9.2,4.5c0,15.7,0,31.3,0,47
		c9,4.1,5.9,9.1,3.8,14c78,0,156,0,234,0c-11.7-9.1-34.7-12.4-57.2-8.2c-4,0.8-8,1.7-13.8,3c8.6-6.3,19.7-7.7,31.2-8.1
		c14.9-0.5,28.7,1.1,39.1,7.5c2.7,1.7,4.4,3.6,4.5,5.9c86.2,0,172.4,0,258.6,0c2-3.6,4.6-7.1,9.2-10.1
		C471.3,122.3,432.8,122.5,394.3,122.1z M58.5,75c-10.5-3-11-3.9-5.7-9.9c0.7,0.3,1.3,0.6,2,0.9c-3.7,4.8,2.1,6.2,9.2,7.1v0
		c0,0,0,0,0,0c3.2,0,6.4,0,9.5-0.1l0,0c1.3-0.3,2.5-0.7,3.8-1c0,0,0,0,0,0c0.6,1.6-1.8,1.7-3.8,2C68.7,74.8,63.7,75.3,58.5,75z
		 M52.8,65.1C52.8,65.1,52.8,65.1,52.8,65.1L52.8,65.1L52.8,65.1z M81.7,86.5c0,0.2-0.6,0.6-1.1,0.6c-1.2,0.1-1.6-0.3-1.3-0.8
		c0.1-0.2,0.9-0.3,1.3-0.5C81.1,86,81.7,86.3,81.7,86.5z M82.8,59c11.3,0.2,14,2.1,11.3,8c-1.3,0.1-2.5,0-3.1-0.7
		c-4.9-5.9-7-6.4-19.3-5.2c0,0,0,0,0,0c-2.9,1-6.2,1-9.4,1c1.4-1.1,3.3-1.8,5.7-2c1.2-0.3,2.5-0.7,3.7-1h0
		C75.4,59.1,79.1,59,82.8,59z"/>
	<path fill="#DE753D" d="M755,98.1c0-7.7,0-15.3,0-23c-4.2-7-15.5-10.6-25.2-15c-2.3-1-4.9-1.5-7.8-0.7c-0.3,0.1-0.5,0.2-0.7,0.4
		c0.5,0.2,1,0.4,1.5,0.6c-0.6,1.4-1.7,2.7-3.7,3.7c-7.9,10.5-23.2,17.5-40,23.7c-30.4,11.2-64.4,18.3-99.9,23.4
		c0.2,0.3,0.3,0.5,0.5,0.8c0,0,0,0,0,0c12.9,1.5,22.4,5.4,28.3,11.9c-13.5-5.6-28.7-8.5-45.5-8.9c-11.2-0.3-21.7,1.4-32.2,3
		c0,0,0,0,0,0c-9.3,2.6-18.2,5.5-22.5,11.1c70.5,0,140.9,0,211.4,0c2.8-8,16.5-13,35.9-13c0-5.3,0-10.7,0-16
		c-1.8-0.2-4.6,0.1-4.6-1.1C750.5,97.8,753.3,98.3,755,98.1z M655.2,104.3c-0.5,0.1-1.4,0-1.6-0.1c-0.6-0.6,0.1-0.9,1.1-0.9
		c0.5,0,1,0.2,1.6,0.4C655.9,103.9,655.6,104.2,655.2,104.3z M668.8,111.7c0.1-2,3.1-2.4,5.5-4.4
		C675.2,110.9,672.9,111.5,668.8,111.7z M748.6,86.2c-1.2,1.5-3.2,0.3-4.9,0c0,0,0,0,0,0c-6-0.4-10.7,1.2-15.3,3.6
		c0.7-4.9,4-5.7,17.1-4.6c0,0,0,0,0,0l0,0C746.8,85.3,749.1,85.5,748.6,86.2z"/>
</g>
<path fill="#DE753E" d="M41.5,56.1c0.6-1,1.3-2,1.9-3c-0.8-0.5-1.5-0.9-2.3-1.4c0,0,0,0,0,0c-1.9,0.7-3.8,1.5-5.7,2.2c0,0,0,0,0,0
	C37.4,54.7,39.5,55.4,41.5,56.1z"/>
<path fill="#F9BA5A" d="M636.2,82.1c9.6,2.6,20,2.5,30.2,1.9c11.9-0.7,16.9-4.2,16.7-10.8c-1,0.6-2.1,1.1-3.1,1.7
	c-0.1,0.1-0.2,0.2-0.4,0.2c-2.4,3.8-7.7,5.6-15.1,6c-7,1.5-14,1.4-21.1,0c0,0,0,0,0,0c-1.2,0-2.4-0.1-3.6-0.1c0,0,0,0,0,0
	c-0.6,0-1.2,0.1-1.8,0.1C637.4,81.4,636.8,81.7,636.2,82.1C636.2,82.1,636.2,82.1,636.2,82.1z"/>
<path fill="#F8AC54" d="M422.7,111.1L422.7,111.1c0.6,0.7,1.3,1.3,1.9,2l0,0c3.6-2.1,5.1-4.4,1.9-7.1l0,0c-0.6,0.7-1.3,1.4-1.9,2.1
	C424,109.1,423.4,110.1,422.7,111.1z"/>
<path fill="#F7A753" d="M636.2,82.1c0.6-0.3,1.2-0.7,1.8-1c-2.9-0.9-5.8-1.8-8.7-2.7c-0.3-0.1-0.6-0.1-0.9-0.3c-0.6,0-1.2,0-1.8,0
	c-0.6,0.3-1.2,0.7-1.8,1c0,0,0,0,0,0c1.9,0.7,3.7,1.4,5.6,2.1h0C632.3,81.5,634.2,81.8,636.2,82.1L636.2,82.1z"/>
<path fill="#F7A653" d="M683.1,73.2c0-0.4,0-0.7,0.1-1.1c-1.4-0.5-1.7-1.7-4.3-1.6c0.3,1.6,0.5,3.1,0.8,4.6c0.1-0.1,0.3-0.2,0.4-0.2
	C681.1,74.3,682.1,73.7,683.1,73.2z"/>
<path fill="#F6A652" d="M183,96C183,96,183,96,183,96C183,96,183,96,183,96c-3.7,0.1-7.4,0.1-11.1,0.2l0,0c0.6,0.6,1.2,1.2,1.8,1.8
	c1.8,0,3.7,0.1,5.5,0.1l0,0c1.9-0.4,3.8-0.7,5.8-1.1C184.3,96.7,183.7,96.4,183,96z"/>
<path fill="#F58144" d="M307.9,107.6c1.6,0,2-0.6,2.1-1.2c0-0.8,0.1-1.7-2-1.8c-1.3,0-2.2,0.5-2.3,1.2
	C305.5,106.6,306.3,107.3,307.9,107.6z"/>
<path fill="#DD783F" d="M179.2,98.2c-1.8,0-3.7-0.1-5.5-0.1c-4.4,0-8.8,0.1-13.3,0.1c0,0,0,0,0,0c6.1,1.6,12.6,0.7,18.9,0.9l0,0
	C179.3,98.8,179.3,98.5,179.2,98.2L179.2,98.2z"/>
<path fill="#F8A753" d="M350.9,112.1C350.9,112.1,350.9,112.1,350.9,112.1c0.6-0.3,1.3-0.7,1.9-1c0,0,0,0,0,0
	c-1.3-1.3-2.6-2.7-3.9-4c0,0,0,0,0,0c-0.5,0-1,0-1.5,0C347.4,109,348.5,110.7,350.9,112.1z"/>
<path fill="#F6984D" d="M183,96c0.6,0.4,1.3,0.7,1.9,1.1c2.2-0.8,6.1-0.8,5.7-3l0,0C188.1,94.7,185.6,95.4,183,96
	C183,96,183,96,183,96z"/>
<path fill="#E19D4C" d="M173.7,98.1c-0.6-0.6-1.2-1.2-1.8-1.8c0,0,0,0,0,0c-1.3,0-2.6-0.1-3.9-0.1c-9.6-0.4-18.5-1.4-22.4-7
	c0,0,0,0,0,0c-0.6-1.1-1.9-1.4-4-1.1c0,0,0,0,0,0c2.3,7.1,6.2,9.2,18.7,10.1c0,0,0,0,0,0C164.9,98.1,169.3,98.1,173.7,98.1z"/>
<polygon fill="#E0994B" points="52.8,65.1 52.8,65.1 52.8,65.1 "/>
<path fill="#E0994B" d="M64.1,73.1L64.1,73.1c-7.1-0.9-12.9-2.2-9.2-7.1c-0.7-0.3-1.3-0.6-2-0.9c-5.3,6-4.8,6.9,5.7,9.9
	c0.3-0.3,0.7-0.4,1.2-0.4C61.2,74.1,62.6,73.6,64.1,73.1z"/>
<path fill="#DE753D" d="M126.5,80.1L126.5,80.1c-1.9-0.7-3.8-1.3-5.7-2c0.4,2.5,0,5.3,7.5,4h0C127.7,81.4,127.1,80.8,126.5,80.1z"/>
<path fill="#E09048" d="M73.6,73.1C73.6,73.1,73.6,73.1,73.6,73.1L73.6,73.1c-3.2,0-6.4,0-9.5,0.1c0,0,0,0,0,0
	c-1.4,0.5-2.9,1-4.3,1.5c-0.4,0.1-0.8,0.3-1.2,0.4c5.1,0.2,10.1-0.2,15-1C73.6,73.8,73.6,73.4,73.6,73.1z"/>
<path fill="#DE753D" d="M137.8,86.1C137.8,86.1,137.8,86.1,137.8,86.1c-1.3-0.7-2.6-1.3-3.9-2C131.3,87,136.2,85.6,137.8,86.1z"/>
<path fill="#DD783F" d="M80.6,87.1c0.4,0,1-0.4,1.1-0.6c0-0.2-0.6-0.4-1-0.7c-0.5,0.2-1.2,0.3-1.3,0.5C79,86.8,79.4,87.2,80.6,87.1z
	"/>
<path fill="#DF8142" d="M73.6,73.1c0,0.3,0,0.7,0,1c2-0.3,4.4-0.4,3.8-2c0,0,0,0,0,0C76.1,72.4,74.9,72.8,73.6,73.1
	C73.6,73.1,73.6,73.1,73.6,73.1z"/>
<path fill="#F58344" d="M352.9,111.1L352.9,111.1c2,1.4,4.6,2.3,7.6,3l0,0c2.9-0.3,5.5-0.9,7.6-2c-6.7-0.4-4.6-2.7-3.7-4.8
	c0.4-1,0.5-2-1.5-2.6c-1.4-0.4-3.4-0.6-3.9,0.4c-1.5,3.3-6.6,1.6-10,2.1c0,0,0,0,0,0C350.3,108.5,351.6,109.8,352.9,111.1z"/>
<path fill="#B35C2E" d="M352.8,93C352.8,93,352.8,93,352.8,93C352.8,93,352.8,93,352.8,93c0.7,0.4,1.4,0.7,2.1,1.1l0,0l0,0
	c25.3-9.2,51.5-7.6,72.6,4.4c1.7-1,0.5-2.2,0.8-3.3c0,0,0,0,0,0C409,81.9,371.9,80.8,352.8,93z"/>
<path fill="#B45D2E" d="M650.1,61.4c-0.3-0.1-0.6-0.2-0.9-0.2C649.5,61.3,649.8,61.3,650.1,61.4z"/>
<path fill="#B45D2E" d="M639.9,58.1c-3.8,0-7.5,0-11.3,0l0,0l0,0c-6.8,0.7-13.4,1.5-18.9,4c-0.7,2-1.3,4-2,6l0,0l0,0
	c2.2,2,4.3,3.8,6.8,0c3-4.7,10.4-6.4,18.8-6.9c5.2-0.3,10.6-0.1,15.9-0.1c1.2-0.3,2.5-0.6,3.7-1v0c-1.8-0.4-3.6-0.8-5.4-1.2h0
	C644.7,59.1,642.2,58.9,639.9,58.1z"/>
<path fill="#F47F43" d="M670.1,44.1c-1.2,1.3-2.4,2.6-4.1,4.4c8.3-0.5,15.9,1.1,22.9-1.3c-0.9-0.5-2-1-3-1.4c-1.8-0.7-3.8-1.3-6-1.7
	h0C676.6,44.1,673.3,44.1,670.1,44.1z"/>
<path fill="#F47F43" d="M349,96.1C349,96.1,349,96.1,349,96.1c-0.7,0.9-1.6,2,0.8,2.3c2.9,0.3,2.7-1.3,3.2-2.3
	C351.6,96.1,350.3,96.1,349,96.1L349,96.1z"/>
<path fill="#C76935" d="M650.1,61.4c2.1,0.6,4.3,1.3,6-0.1c0.7-0.6-1.8-1-3.2-1.1c0,0,0,0,0,0c-1.2,0.3-2.4,0.6-3.7,1
	C649.5,61.2,649.8,61.3,650.1,61.4z"/>
<path fill="#F47F43" d="M655.3,55.7c0,0.3-0.1,0.5-0.1,0.8c0,0,0.6,0.2,0.7,0.1c0.3-0.2,0.6-0.4,0.9-0.7
	C656.4,55.8,655.9,55.8,655.3,55.7z"/>
<path fill="#F58445" d="M626.6,78.1c-0.9-0.6-2.2-1.7-3.4-1.1c-2.2,1,0.5,1.5,1.6,2.1c0,0,0,0,0,0C625.4,78.8,626,78.4,626.6,78.1z"
	/>
<path fill="#C56734" d="M352.8,93C352.8,93,352.8,93,352.8,93c-1.2,0.7-2.4,1.4-3.6,2.1l0,0c-0.1,0.3-0.1,0.7-0.2,1v0
	c1.3,0,2.7,0,4,0c0.7-0.6,1.3-1.3,2-1.9l0,0C354.2,93.8,353.5,93.4,352.8,93z"/>
<path fill="#F47F43" d="M493.5,92.2c0.5-0.1,1-0.3,1.5-0.4c-0.2-0.2-0.4-0.5-0.6-0.7c-0.5,0.1-1.2,0.2-1.5,0.4
	C492.8,91.6,493.3,92,493.5,92.2z"/>
<path fill="#B85830" d="M128.4,33.1c0.8,0.3,1.6,0.6,2.5,0.5C130.1,33.5,129.2,33.3,128.4,33.1c17.8-0.8,33.7-4.5,49.1-9h0l0,0
	c3.8-2.1,8.9-3.4,11.1-6.3c0-0.1,0-0.2,0-0.3c-0.4-0.2-0.9-0.3-1.5-0.5c-3.3-0.4-5.8,0.4-8,1.5c-10.7,3.4-23,4.8-34.3,7.3
	c-2.6,0.9-5.4,0.3-8.2,0.2c-6.8-0.2-13.5-0.1-19.4,2c-4.3,1.3-8.6,2.6-12.9,3.9c0,0-0.3,0.3-0.3,0.3
	C112.1,32.6,120.2,32.9,128.4,33.1z"/>
<path fill="#B75E2F" d="M82.8,59c-3.7-0.1-7.4,0-11.1,0h0c-1.2,0.3-2.5,0.7-3.7,1c1.2,0.3,2.5,0.7,3.7,1c0,0,0,0,0,0c0,0,0,0,0,0
	C84,59.9,86.1,60.5,91,66.3c0.6,0.8,1.8,0.8,3.1,0.7C96.8,61.2,94.1,59.2,82.8,59z"/>
<path fill="#F47A41" d="M98.1,55.1c0-0.7,0-1.3,0-2c0.6-1,0.2-1.7-1.8-2c0,1.2,0.1,2.3,1,3.3C97.6,54.7,97.8,54.9,98.1,55.1z"/>
<path fill="#F47B41" d="M485.3,65.2c-0.1,0-0.1-0.1-0.2-0.1c0,0,0,0.1,0,0.1C485.2,65.2,485.3,65.2,485.3,65.2z"/>
<path fill="#DE733D" d="M47.4,54.9c0.8-1.6-2-1.6-4-1.8c-0.6,1-1.3,2-1.9,3C44.1,56.5,46.6,56.4,47.4,54.9z"/>
<path fill="#DE733D" d="M68,60.1c-2.4,0.2-4.4,0.9-5.7,2c3.3,0,6.5,0.1,9.4-1c0,0,0,0,0,0C70.5,60.8,69.2,60.4,68,60.1z"/>
<path fill="#B65E2F" d="M186.9,76.2c-1-0.4-2-0.6-2.9-0.6C184.9,75.8,185.9,76,186.9,76.2z"/>
<path fill="#B65E2F" d="M186.9,76.2c-2.4,0-4.8,0-7.2,0c0,0,0,0,0,0c-2.6,0.3-5.1,0.7-7.7,1c3.8,0.5,7.6,0.9,11.4,1.4
	c1.2,0,2.4,0.2,3.5,0.4c6.7,1.1,12.9,2.4,16.7,5.9c3.4,3.2,4.3,0.1,5.9-0.9l0,0C205.5,78.5,195.7,77.8,186.9,76.2z"/>
<path fill="#BF6232" d="M171.9,77.2c-2.6,0.3-5.2,0.6-7.7,0.9l0.3,0.1c0.6,0.3,1.2,0.7,1.8,1c0,0,0,0,0,0c0,0,0,0,0,0
	c6.9-0.1,13.7-0.1,20.6-0.2c-1.2-0.1-2.3-0.3-3.5-0.4C179.5,78.1,175.7,77.7,171.9,77.2z"/>
<path fill="#D26E38" d="M164.5,78.2c-1.9,0.5-5.3,0.7-5,1.8c0.3,1.2,3.1,0,4.8,0.2c0,0,0,0,0,0c0.7-0.3,1.3-0.6,2-0.9c0,0,0,0,0,0
	C165.6,78.9,165,78.5,164.5,78.2z"/>
<path fill="#F47F43" d="M320.5,93.3c-0.4-0.2-0.8-0.3-1.2-0.5c-0.2,0.1-0.4,0.2-0.5,0.3c0.4,0.2,0.8,0.3,1.3,0.5
	C320.1,93.6,320.3,93.4,320.5,93.3z"/>
<path fill="#E17A3F" d="M145.7,89.2c3.9,5.5,12.8,6.6,22.4,7C160.7,93.7,154.2,90.5,145.7,89.2C145.7,89.2,145.7,89.2,145.7,89.2z"
	/>
<path fill="#F6924B" d="M148.1,85.1c0.4-0.2,0.8-0.5,1.2-0.7c-0.4-0.2-0.8-0.4-1.2-0.6c-0.4,0.2-1,0.5-1.1,0.7
	C147,84.6,147.7,84.9,148.1,85.1z"/>
<path fill="#F58144" d="M533.9,68.1C533.6,68,533.7,68.1,533.9,68.1L533.9,68.1z"/>
<path fill="#F58144" d="M534.2,68.1c0.1,0,0.2-0.1,0.2-0.2c0,0,0,0,0,0C534.3,68,534.2,68.1,534.2,68.1z"/>
<path fill="#F58144" d="M533.9,68.1c0.1,0,0.1,0,0.2,0c0,0,0,0,0-0.1C534.1,68,534,68.1,533.9,68.1z"/>
<polygon fill="#F47D42" points="596.6,55.1 596.6,55.1 596.6,55.1 "/>
<path fill="#F6A551" d="M592.8,57.1L592.8,57.1c-2.6,0.7-5.1,1.3-7.7,2c3.4-0.1,7,0.1,10.2-0.3c4-0.6,6.2-1.9,1.3-3.6l0,0
	c0,0,0,0,0,0h0C595.9,56.1,594.7,56.8,592.8,57.1z"/>
<path fill="#F47D42" d="M570.5,66.3c0.4-0.2,1.1-0.3,1.2-0.6c0.3-0.5,0.1-1-1.2-0.8c-0.4,0.1-0.9,0.4-1,0.7
	C569.5,65.8,570.1,66,570.5,66.3z"/>
<path fill="#F58244" d="M593.7,67c0.9,0.2,1.8,0,1.8-0.6c0-0.2-0.7-0.4-1.1-0.6c-0.5,0.2-1.3,0.3-1.4,0.5
	C592.9,66.5,593.3,66.9,593.7,67z"/>
<path fill="#F58244" d="M560.6,71.4c0.5-0.1,0.8-0.4,1.2-0.6c-0.6-0.1-1.2-0.3-1.6-0.2c-0.5,0.1-0.7,0.4-1.1,0.7
	C559.6,71.3,560.2,71.5,560.6,71.4z"/>
<path fill="#F47B41" d="M579.3,52c-0.1-0.1-0.3-0.1-0.5-0.1C579,52,579.2,52,579.3,52c-0.5,0.4-1,0.7-1.5,1.1c0,0,0,0,0,0
	c1.2,0.3,2.4,0.7,3.6,1c1.9-0.3,3.8-0.7,5.7-1c1.3-1,2.5-2,3.8-3c-1.3,0-2.6,0-3.9,0C584.8,51.3,582.2,51.8,579.3,52z"/>
<path fill="#CF6736" d="M578.8,51.9c0.2,0,0.3,0.1,0.5,0.1c2.9-0.2,5.5-0.7,7.5-1.9c-0.6,0-1.2,0-1.7-0.1h0c-3.3,0.1-6.6-0.1-9.5,1
	C576.7,51.4,577.8,51.6,578.8,51.9z"/>
<path fill="#F47A41" d="M130.1,50.2c0.5,0,1,0,1.6,0c0-0.2,0-0.3,0-0.5c-0.5,0-1,0-1.5,0C130.1,49.8,130.1,50.1,130.1,50.2z"/>
<path fill="#BB5E2F" d="M577.8,53.1C577.8,53.1,577.8,53.1,577.8,53.1c0.5-0.4,1-0.7,1.5-1.1c-0.2,0-0.3-0.1-0.5-0.1
	c-1.1-0.3-2.2-0.6-3.2-0.9c-0.7,1-1.4,2-2.1,3l0,0C575.8,54.8,576.9,54.1,577.8,53.1z"/>
<path fill="#F47D42" d="M625.2,33c0.6-0.7,1.2-1.4,1.8-2.1c0,0,0,0,0,0c0,0-0.1,0.1-0.1,0.1c-0.8,0.6-1.6,1.2-2.3,1.8
	C624.7,32.8,624.9,32.9,625.2,33z"/>
<path fill="#F6AB53" d="M207.6,58.1L207.6,58.1c0.6,0.3,1.3,0.7,1.9,1c15.3,2.9,30.7,5.5,47.2,3c2.3-1.7,0.3-1.9-2.4-2
	c-4.3-0.1-8.7,0.3-12.7-1c0,0,0,0,0,0c-10-0.3-19-2.3-28.2-4.1C210.4,55.4,208.3,56.4,207.6,58.1z"/>
<path fill="#F6A451" d="M281.2,56.1c0.3-0.1,0.6-0.2,0.9-0.2C281.8,55.9,281.5,56,281.2,56.1c-12.8,2.3-26,3.4-39.6,3l0,0
	c4,1.3,8.4,0.9,12.7,1c2.7,0.1,4.6,0.3,2.4,2c9.5-0.1,17.9-2.2,26.5-4l0,0c0.6-0.3,1.3-0.7,1.9-1C283.8,56.8,282.5,56.4,281.2,56.1z
	"/>
<path fill="#F47B41" d="M509.6,69.1c0-0.3,0-0.7,0-1c-2.1-0.7-3.3-1.7-3.8-3c-1.3,0.3-2.5,0.7-3.8,1
	C504.3,67.3,506.1,68.8,509.6,69.1z"/>
<path fill="#F47F43" d="M481.5,66.7c0,0.2,0.8,0.5,1.1,0.5c2.2-0.2,2.1-1.2,2.4-2c0,0,0-0.1,0-0.1c-0.1,0-0.1,0-0.2,0
	c-0.1,0-0.2,0-0.2,0C483.1,65.4,481.5,65.6,481.5,66.7z"/>
<path fill="#F47F43" d="M459.2,72.8c-0.7,0.2-1.6,0.5-1.9,0.9c-0.5,0.6,0.4,0.8,1.3,0.6c0.8-0.2,1.4-0.5,2.2-0.7
	C459.9,73.1,459.3,72.8,459.2,72.8z"/>
<path fill="#F47C42" d="M517.2,71.1c0.6-1,1.3-2,1.9-3c-3.1-0.9-6.3-0.4-9.4,0c0,0.3,0,0.7,0,1C512.1,69.8,514.7,70.4,517.2,71.1z"
	/>
<path fill="#F47F43" d="M517.2,71.1c1.2-0.9,6.3-1.1,1.9-3C518.4,69.1,517.8,70.1,517.2,71.1z"/>
<path fill="#F5A551" d="M207.6,58.1L207.6,58.1c0.7-1.7,2.7-2.7,5.8-3.1c-7.4-4-14.9-8-9.6-15.7c-5.2,2.4-6.7,4-7.7,5.7
	c0,1.7,0,3.3,0,5c-0.1-0.2-0.2-0.4-0.4-0.6c0.1,0.2,0.2,0.4,0.4,0.6c0,0.3,0.1,0.7,0.1,1v0C199,53.9,201.9,56.6,207.6,58.1z"/>
<path fill="#F47A41" d="M196.2,45.1c-3.6,0.5-4.2-2.1-7.4-2.2c-3,4,5,4.4,7.1,6.7c0.2,0.2,0.3,0.4,0.4,0.6
	C196.2,48.4,196.2,46.8,196.2,45.1z"/>
<path fill="#F69B4D" d="M288.7,54.1L288.7,54.1L288.7,54.1c-2.2,0.6-4.4,1.2-6.6,1.8c-0.3,0.1-0.6,0.2-0.9,0.2
	c1.3,0.3,2.6,0.7,3.9,1c1.9-0.7,3.7-1.4,5.6-2C290,54.8,289.4,54.4,288.7,54.1z"/>
<path fill="#F48D48" d="M288.7,54.1L288.7,54.1c0.6,0.3,1.3,0.7,1.9,1c1.7-0.8,4.3-1.1,4-2.9c-2.1,0.3-4,0.6-5.9,0.9h0
	C288.8,53.5,288.8,53.8,288.7,54.1z"/>
<path fill="#BE582E" d="M311.5,35.1c0.2,0.2,0.4,0.4,0.6,0.5C311.9,35.5,311.7,35.3,311.5,35.1z"/>
<path fill="#BE582E" d="M311.6,40.1L311.6,40.1L311.6,40.1c-0.1-1.7-0.1-3.3-0.2-5c-1.3-1.3-2.6-2.6-3.9-3.9c0,0,0,0,0,0
	c-16.4-7.7-36.2-7.8-56.4-7.2l0,0c-6.5,0.7-13.1,1.4-19,3.1c1.3,0.3,2.6,0.7,3.9,1c-0.8,0.1-1.6,0.3-2.3,0.4c0.7,0,1.5-0.2,2.3-0.4
	c2.8-0.2,5.6-0.5,8.4-0.6c16.7-0.9,33.2-1.1,48.5,3.6c7.6,2.3,12.8,5.3,13.1,10.1c0.1,1.1-1.1,3,3.4,2.7c0,0,0,0,0,0
	C310.1,42.6,310.9,41.4,311.6,40.1z"/>
<path fill="#C85F32" d="M232.2,27.1c-0.6,0-1.3,0-1.9-0.1c-1.8,0.4-3.6,0.8-5.4,1.1c0,0,0,0,0,0c-0.8,0.6-1.6,1.3-2.4,1.9
	c0.8,0,1.6,0.1,2.3,0.1c-0.2,0.1-0.5,0.2-0.7,0.2c0.2,0,0.5-0.1,0.7-0.2c3-0.5,5.9-1.1,8.9-1.6c0.8-0.1,1.6-0.3,2.3-0.4
	C234.7,27.8,233.4,27.4,232.2,27.1z"/>
<path fill="#D36435" d="M222.4,30.1c-0.5,0-1.1-0.1-1.6-0.1c0,0,0,0,0,0c-0.5,0.4-1.5,1.1-1.4,1.1c2.2,0.9,3.3-0.1,4.7-0.7
	c0.2-0.1,0.5-0.2,0.7-0.2C224,30.1,223.2,30.1,222.4,30.1z"/>
<path fill="#F47C42" d="M171.1,57.7c0-0.9-0.8-1.6-2.7-1.8c-2.5,0.2-3,1.1-2.7,2.1c0.2,0.6-1,1.8,1.3,1.8
	C169.4,60,171.2,59.2,171.1,57.7z"/>
<path fill="#F47C42" d="M188.2,56.7c0.2,0.3,0.7,0.5,1.2,0.6c0.1,0,0.7-0.3,1-0.5c-0.4-0.2-0.8-0.4-1.3-0.7
	C188.8,56.4,188.2,56.7,188.2,56.7z"/>
<path fill="#F3733E" d="M556.8,20.1c5.4,0.5,9.3-0.6,11.9-3.1c-0.3-0.3-0.5-0.6-0.8-0.8c-0.9-0.1-1.8-0.2-2.7-0.2
	c-1.3-0.1-2.6-0.2-3.9-0.4c-1.5-0.1-3-0.3-4.5-0.4C560.2,16.8,556.4,18.5,556.8,20.1z"/>
<path fill="#F58144" d="M537.2,34c-4.3,0.9-8.4,2.2-13.3,2.1C529.5,37.3,534.6,37.7,537.2,34z"/>
<rect x="556.8" y="20.1" fill="#F3733E" width="0" height="0"/>
<path fill="#F58144" d="M553.8,21.7c0.2,0.3,1.5,0.9,2,0.8c2.7-0.4,1.4-1.5,1-2.4C554.5,19.9,553.1,20.3,553.8,21.7z"/>
<path fill="#BD5A2D" d="M513.5,33C513.5,33,513.5,33,513.5,33c1.2-1,2.4-2,3.6-3c-0.6-0.4-1.3-0.7-1.9-1.1c0,0,0,0,0,0c0,0,0,0,0,0
	c-2.2,0.7-3.1,1.8-3.4,3.1C512.3,32.4,512.9,32.7,513.5,33z"/>
<path fill="#CD6133" d="M517.1,30.1L517.1,30.1c0.7,0,1.3,0.1,2,0.1l0,0c1.4-0.5,2.8-1,4.5-1.6c-3.4-0.7-5.9-0.3-8.4,0.5
	c0,0,0,0,0,0C515.8,29.3,516.4,29.7,517.1,30.1z"/>
<path fill="#F37840" d="M513.5,33C513.5,33,513.5,33,513.5,33c-0.6-0.3-1.2-0.6-1.7-1c-1.3,0.4-2.7,0.7-4,1.1
	C509.8,35.3,511.6,34.3,513.5,33z"/>
<path fill="#F37840" d="M503.5,39.4c0.4,0,0.9-0.3,1.4-0.5c-0.2-0.3-0.4-0.7-0.7-0.7c-0.4-0.1-1.3,0-1.6,0.2
	C502,38.9,502.5,39.3,503.5,39.4z"/>
<path fill="#F58244" d="M721.3,59.8c-0.6-0.2-1.2-0.5-1.8-0.7c-6.6-2.9-13.3-5.8-19.9-8.7c-0.4-3.2-4.5-4.5-9.7-5.2
	c-1.3,0.2-2.6,0.4-4,0.6c1.1,0.4,2.1,0.9,3,1.4c-7,2.4-14.6,0.9-22.9,1.3c1.7-1.8,2.9-3.1,4.1-4.4c3.3,0,6.6-0.1,9.8-0.1h0l0,0
	c-5.3-2.2-11.5-3-18-3.6c-7.3-0.7-14.7-1.4-20.6-4.1c-2.8-0.8-5.6-1.6-8.3-2.3c0,0,0,0,0,0c-2-1-4-2-6-3c-0.6,0.7-1.2,1.4-1.8,2.1
	c-0.2-0.1-0.5-0.2-0.7-0.2c0.8-0.6,1.6-1.2,2.3-1.8l-0.6,0.2l0.7-0.2c-0.3-0.5-0.6-1.1-0.9-1.6c-4.6-2.3-10.2-3.4-16.1-4.2h0
	c-3.3-0.9-6.7-1.9-10-2.8c-5.8-5.1-16.1-5.2-25.5-6.4c-1.8-0.2-3.6-0.2-5.5-0.2c-1.3,0-2.6,0-3.7,0.3c0.9,0.1,1.8,0.2,2.7,0.2
	c0.3,0.3,0.5,0.6,0.8,0.8c-2.6,2.5-6.5,3.6-11.9,3.1c0,0,0,0,0,0c0,0,0,0,0,0c0.4,0.9,1.7,1.9-1,2.4c-0.5,0.1-1.8-0.4-2-0.8
	c-0.8-1.4,0.7-1.7,3-1.6l0,0c0,0,0,0,0,0c-0.4-1.7,3.4-3.3,0-5c1.5,0.1,3,0.3,4.5,0.4c-0.8-0.7-2.1-1.2-3.6-1.6
	c-0.6-0.1-1.2-0.2-1.8-0.2c-1.9-2-5.8-2.5-9.4-3.2c-8.2-1.5-16.7-2.1-25.2-2.9c-2.3-0.5-4.7-0.9-7.2-0.9c-2.3,0.1-4.1,0.7-5.5,1.5
	c-12.1-1.8-24.8-2.2-37-3.9c-2.5,0-5,0.1-7.5,0.1c-8.9,5.4-20.7,6-33.1,5.5c-3.4-0.1-6.7-0.5-10.1-0.7c-6.8-2.2-15.5-3.2-19.1-7.7
	c-5.8-0.4-11.6-0.7-17.4-1.1c0,0-0.9,0-0.9,0c-13.1,0.3-26.2,0.5-39.3,0c-3.5-0.7-6.6,0.4-9.9,0.6c-6.1,0.1-12.2,0.2-18.3,0.3
	c-3.2,0.8-6.8,0.1-10.1,0.7c-8.2,0.4-16.5,0.9-24.7,1.3c-0.4,0.1-0.9,0.2-1.4,0.1c-3.9,0.4-8.1-0.3-11.8,0.9
	c-6.8,1.1-13.7,1.7-20.8,1.9c-1.2,0.3-2.4,0.7-3.7,1h0c-9.5,1-18.9,2-28.4,2.9c-0.7,0.3-1.5,0.6-2.2,1h0c-6.2,0.7-12.4,1.4-18.6,2
	c-0.7,0.3-1.3,0.7-2,1c-0.1,0.4-0.2,0.8-0.4,1.2c-2.3,0.3-3.6,0.9-3.6,2.2c0,0.1,0,0.2,0,0.3c-2.2,2.9-7.3,4.2-11.1,6.3l0,0h0
	c-15.4,4.5-31.3,8.2-49.1,9c0.9,0.2,1.7,0.4,2.5,0.5c-0.9,0.1-1.8-0.3-2.5-0.5c-8.1-0.3-16.3-0.5-24.4-0.8c0,0,0,0,0,0
	c-2.4,3.5-5.9,6.8-5.9,10.7c0,0,0,0,0,0c-2.7,2.5-1.5,5.3-1.7,8c2,0.3,2.4,1,1.8,2c0,0.7,0,1.3,0,2c-0.3-0.2-0.5-0.5-0.8-0.7
	c0.1,0.2,0.3,0.5,0.8,0.7c-0.2,3.2,2.6,6,3.8,9c4.4,3.7,8.8,7.3,13.2,11l0,0c1.9,1,3.8,2,5.7,3c1.9,0.7,3.8,1.3,5.7,2l0,0
	c0.6,0.7,1.3,1.3,1.9,2h0c1.9,0.7,3.8,1.3,5.6,2c1.3,0.7,2.6,1.3,3.9,2c0,0,0,0,0,0c1.3,0.7,2.6,1.3,3.9,2c2-0.4,3.4-0.1,4,1.1
	c8.5,1.4,15,4.5,22.4,7c1.3,0,2.6,0.1,3.9,0.1c0,0,0,0,0,0l0,0c3.7-0.1,7.4-0.1,11.1-0.2c0,0,0,0,0,0c2.5-0.6,5.1-1.3,7.6-1.9l0,0
	c0.5,2.2-3.5,2.2-5.7,3c-1.9,0.4-3.8,0.7-5.8,1.1c0,0.3,0.1,0.6,0.1,0.9l0,0c12.4,2.9,24.6,6.1,37.7,8c0,0,0,0,0,0v0
	c3.3,0.5,6.6,1,9.9,1.6c50.9,8.4,103.1,12.6,156.3,13.4c-12.4-1.8-25.3-3.2-32.3-9.9c0,0,0,0,0,0c-2.5-1.4-3.5-3.1-3.5-5
	c0.5,0,1,0,1.5,0c0,0,0,0,0,0c0,0,0,0,0,0c3.4-0.5,8.4,1.2,10-2.1c0.5-1,2.5-0.8,3.9-0.4c2,0.6,1.9,1.6,1.5,2.6
	c-0.9,2.1-2.9,4.4,3.7,4.8c-2.1,1.1-4.7,1.7-7.6,2l0,0l0,0c18.7,6.5,42.3,5.4,62.3-3l0,0c0.6-1,1.3-2,1.9-3c0.6-0.7,1.3-1.4,1.9-2.1
	l0,0c3.2,2.7,1.6,4.9-1.9,7.1l0,0l0,0c-7.1,5.8-19,7.1-30.3,9c38.5,0.4,76.9,0.2,115.1-3c0,0,0,0,0,0c1.2-0.4,2.4-0.7,3.6-1.1
	c16.3-8.2,36.3-8.7,57-7.6c3.1,0.2,6.2,0.5,9.2,0.8c0,0,0,0,0,0c35.6-5.1,69.5-12.2,99.9-23.4c16.8-6.2,32.1-13.2,40-23.7
	c2-1,3-2.3,3.7-3.7C722.3,60.2,721.8,60,721.3,59.8z M131.7,50.2c-0.5,0-1,0-1.6,0c0-0.1,0-0.4,0-0.4c0.5,0,1,0,1.5,0
	C131.7,49.9,131.7,50,131.7,50.2z M165.7,58.1c-0.3-1,0.2-2,2.7-2.1c1.9,0.2,2.6,0.9,2.7,1.8c0.1,1.4-1.7,2.2-4.1,2.2
	C164.7,60,165.9,58.7,165.7,58.1z M148.1,85.1c-0.4-0.2-1.1-0.4-1.1-0.6c0.1-0.3,0.7-0.5,1.1-0.7c0.4,0.2,0.8,0.4,1.2,0.6
	C148.9,84.6,148.5,84.8,148.1,85.1z M209.3,84.1c-1.6,1-2.4,4-5.9,0.9c-3.8-3.5-10-4.9-16.7-5.9c-1.2-0.3-2.3-0.4-3.5-0.4
	c1.2,0.1,2.3,0.3,3.5,0.4c-6.9,0.1-13.7,0.1-20.6,0.2c0,0,0,0,0,0c-0.7,0.3-1.3,0.6-2,0.9c0,0,0,0,0,0c-1.7-0.2-4.5,1-4.8-0.2
	c-0.3-1.1,3.1-1.3,5-1.8l-0.3-0.1c2.6-0.3,5.2-0.6,7.7-0.9c2.6-0.3,5.1-0.7,7.7-1c0,0,0,0,0,0c2.4,0,4.8,0,7.2,0
	c-1-0.2-2-0.4-2.9-0.6c1,0.1,2,0.3,2.9,0.6C195.7,77.8,205.5,78.5,209.3,84.1L209.3,84.1z M188.2,56.7c-0.1-0.1,0.6-0.4,0.9-0.5
	c0.4,0.2,0.8,0.4,1.3,0.7c-0.3,0.2-0.9,0.5-1,0.5C188.9,57.2,188.5,57,188.2,56.7z M290.7,55.1c-1.9,0.7-3.7,1.4-5.6,2
	c-0.7,0.3-1.3,0.7-1.9,1l0,0c-8.6,1.8-17,3.9-26.5,4c-16.5,2.5-31.9-0.1-47.2-3c-0.6-0.3-1.3-0.7-1.9-1l0,0c-5.7-1.5-8.6-4.2-11.3-7
	v0c0-0.3,0-0.7-0.1-1c-0.1-0.2-0.2-0.4-0.4-0.6c-2-2.2-10.1-2.7-7.1-6.7c3.2,0.2,3.8,2.8,7.4,2.2c1-1.8,2.6-3.3,7.7-5.7
	c-5.3,7.6,2.1,11.6,9.6,15.7c9.2,1.7,18.2,3.8,28.2,4.1c0,0,0,0,0,0l0,0c13.6,0.4,26.7-0.7,39.6-3c0.3-0.1,0.6-0.2,0.9-0.2
	c2.2-0.6,4.4-1.2,6.6-1.8l0,0c0-0.3,0.1-0.6,0.1-0.9h0c1.9-0.3,3.8-0.6,5.9-0.9C295,54,292.3,54.4,290.7,55.1z M310,106.3
	c0,0.7-0.4,1.3-2.1,1.2c-1.7-0.3-2.4-0.9-2.3-1.8c0.1-0.7,1-1.2,2.3-1.2C310,104.6,310,105.5,310,106.3z M313.3,40.1
	c-0.6,0-1.1,0-1.7,0c-0.8,1.3-1.5,2.5-2.3,3.8c0,0,0,0,0,0c-4.5,0.3-3.3-1.5-3.4-2.7c-0.4-4.9-5.6-7.8-13.1-10.1
	c-15.3-4.7-31.8-4.5-48.5-3.6c-2.8,0.2-5.6,0.4-8.4,0.6c-0.9,0.2-1.7,0.4-2.3,0.4c-3,0.5-5.9,1.1-8.9,1.6c-0.2,0.1-0.5,0.2-0.7,0.2
	c-1.4,0.6-2.5,1.6-4.7,0.7c0,0,0.9-0.7,1.4-1.1c0,0,0,0,0,0c0.5,0,1.1,0.1,1.6,0.1c0.8-0.6,1.6-1.3,2.4-1.9c0,0,0,0,0,0c0,0,0,0,0,0
	c-2.7-0.6-5.3-1.3-4.3-3.2c0.6-1.1,2.7-1.3,4.6-1.3c4.3,0,4.9,1.6,5.1,3.3c0.6,0,1.3,0,1.9,0.1c5.9-1.7,12.5-2.4,19-3.1l0,0
	c20.2-0.7,40-0.6,56.4,7.2c0,0,0,0,0,0c1.3,1.3,2.6,2.6,3.9,3.9c0.3,0.2,0.4,0.3,0.6,0.5C313.4,37,313.3,38.6,313.3,40.1L313.3,40.1
	z M316.9,34.4c0.5-0.1,1-0.4,1.4-0.4c0.4,0.1,0.6,0.5,0.8,0.7c-0.5,0.1-1,0.4-1.4,0.4C317.4,35.1,317.2,34.7,316.9,34.4z M320,93.6
	c-0.4-0.1-0.8-0.3-1.3-0.5c0.2-0.1,0.4-0.2,0.5-0.3c0.4,0.2,0.8,0.3,1.2,0.5C320.3,93.4,320.1,93.6,320,93.6z M407.4,37.1
	c1,0.4,1.9,0.6,2.3,1c0.7,0.7,0.3,1.4-1.4,1.3c-0.6,0-1.5-0.6-1.8-1C406.4,38.2,407,37.7,407.4,37.1z M398.1,38
	c0.7,0,1.3,0.4,2.3,0.8c-1.1,0.3-1.8,0.7-2.4,0.7c-0.6-0.1-1.2-0.5-1.7-0.8C396.9,38.4,397.5,38,398.1,38z M382.7,13.7
	c0.5,0.1,0.9,0.5,1,0.8c0.2,0.5-0.3,0.9-1.8,1c-0.3-0.3-1.1-0.7-1.1-1.1C380.8,13.8,381.6,13.4,382.7,13.7z M427.5,98.6
	c-21.2-12-47.3-13.6-72.6-4.4l0,0c-0.7,0.6-1.3,1.3-2,1.9c-0.5,1-0.3,2.5-3.2,2.3c-2.4-0.2-1.5-1.4-0.8-2.3c0,0,0,0,0,0
	c0.1-0.3,0.1-0.7,0.2-1c1.2-0.7,2.4-1.4,3.6-2.1c0,0,0,0,0,0c19.1-12.3,56.2-11.2,75.6,2.2c0,0,0,0,0,0
	C428.1,96.3,429.3,97.6,427.5,98.6z M458.6,74.3c-0.9,0.2-1.9,0-1.3-0.6c0.3-0.4,1.2-0.6,1.9-0.9c0.1,0,0.7,0.3,1.6,0.7
	C460,73.8,459.3,74.1,458.6,74.3z M502.6,38.4c0.2-0.2,1.1-0.3,1.6-0.2c0.4,0.1,0.5,0.5,0.7,0.7c-0.5,0.2-1,0.5-1.4,0.5
	C502.5,39.3,502,38.9,502.6,38.4z M472.2,19.5c-0.4,0.1-1.1,0.4-1.8,0.6c-0.1-0.5-0.3-0.9-0.1-1.4c0.1-0.2,0.9-0.6,1.2-0.6
	C472.7,18.2,472.6,18.8,472.2,19.5z M485,65.2c-0.3,0.8-0.1,1.8-2.4,2c-0.3,0-1.1-0.3-1.1-0.5c0-1.1,1.6-1.3,3.1-1.5
	c0.1,0,0.2,0,0.2,0c0.1,0,0.1,0,0.2,0c0.1,0.1,0.2,0.1,0.2,0.1C485.3,65.2,485.2,65.2,485,65.2z M493.5,92.2
	c-0.2-0.2-0.7-0.6-0.6-0.7c0.3-0.2,0.9-0.3,1.5-0.4c0.2,0.2,0.4,0.5,0.6,0.7C494.5,91.9,494,92.1,493.5,92.2z M517.2,71.1
	c-2.5-0.7-5-1.3-7.5-2c-3.5-0.3-5.4-1.8-7.5-3c1.3-0.3,2.5-0.7,3.8-1c0.5,1.3,1.7,2.3,3.8,3c3.1-0.4,6.3-0.9,9.4,0
	C523.5,70,518.3,70.2,517.2,71.1z M519.1,30.2L519.1,30.2c-0.7,0-1.3-0.1-2-0.1h0c-1.2,1-2.4,2-3.6,3c0,0,0,0,0,0c0,0,0,0,0,0
	c-1.9,1.2-3.7,2.3-5.7,0.1c1.3-0.4,2.7-0.7,4-1.1c0.3-1.3,1.3-2.4,3.4-3.1c0,0,0,0,0,0c2.5-0.7,5.1-1.2,8.4-0.5
	C521.9,29.1,520.5,29.7,519.1,30.2z M534.2,68.1c-0.1,0-0.2,0-0.2,0c-0.3,0-0.4-0.1,0,0C534,68.1,534.1,68,534.2,68.1
	C534.1,68.1,534.1,68.1,534.2,68.1c0.1,0,0.1-0.1,0.2-0.1c0,0,0,0,0,0C534.4,68,534.3,68.1,534.2,68.1z M523.9,36.2
	c5,0.1,9-1.3,13.3-2.1C534.6,37.7,529.5,37.3,523.9,36.2z M538,19.5c0-0.1-0.1-0.1-0.1-0.2c0.1,0.1,0.1,0.1,0.2,0.1
	C538,19.5,538,19.5,538,19.5z M560.6,71.4c-0.4,0.1-1-0.1-1.5-0.2c0.4-0.2,0.7-0.6,1.1-0.7c0.4-0.1,1,0.1,1.6,0.2
	C561.4,71,561.1,71.3,560.6,71.4z M656.9,55.9c-0.3,0.2-0.5,0.5-0.9,0.7c-0.1,0.1-0.7,0-0.7-0.1c0-0.3,0-0.5,0.1-0.8
	C655.9,55.8,656.4,55.8,656.9,55.9z M571.7,65.7c-0.2,0.2-0.8,0.4-1.2,0.6c-0.3-0.2-1-0.4-0.9-0.6c0.1-0.3,0.5-0.6,1-0.7
	C571.8,64.8,572,65.2,571.7,65.7z M577.8,53.1C577.8,53.1,577.8,53.1,577.8,53.1C577.8,53.1,577.8,53.1,577.8,53.1
	c-0.9,1-2,1.7-4.3,1l0,0c0.7-1,1.4-2,2.1-3c2.9-1.1,6.2-1,9.5-1h0c0.6,0,1.2,0.1,1.7,0.1c1.3,0,2.6,0,3.9,0c-1.3,1-2.5,2-3.8,3
	c-1.9,0.3-3.8,0.7-5.7,1C580.2,53.8,579,53.4,577.8,53.1z M593.7,67c-0.4-0.1-0.7-0.5-0.6-0.8c0.1-0.2,0.9-0.3,1.4-0.5
	c0.4,0.2,1.1,0.4,1.1,0.6C595.5,67,594.6,67.2,593.7,67z M595.3,58.8c-3.2,0.5-6.8,0.3-10.2,0.3c2.6-0.7,5.1-1.3,7.7-2l0,0
	c1.9-0.3,3.1-1,3.8-2l0,0c0,0,0,0,0,0l0,0l0,0C601.5,56.9,599.4,58.2,595.3,58.8z M614.5,68.1c-2.4,3.8-4.5,2-6.8,0l0,0l0,0
	c0.7-2,1.3-4,2-6c5.4-2.5,12.1-3.4,18.9-4l0,0l0,0c3.8,0,7.5,0,11.3,0c2.3,0.8,4.9,1,7.6,0.9h0c1.8,0.4,3.6,0.8,5.4,1.2v0
	c0,0,0,0,0,0c1.4,0.1,4,0.5,3.2,1.1c-1.7,1.4-3.9,0.7-6,0.1c-0.3-0.1-0.6-0.1-0.9-0.2c-5.3,0-10.6-0.2-15.9,0.1
	C624.8,61.7,617.5,63.4,614.5,68.1z M683.1,73.2c0.2,6.5-4.9,10-16.7,10.8c-10.3,0.6-20.6,0.7-30.2-1.9c0,0,0,0,0,0l0,0
	c-1.9-0.3-3.8-0.6-5.8-0.9h0c-1.9-0.7-3.7-1.4-5.6-2.1c0,0,0,0,0,0c0,0,0,0,0,0c-1.1-0.6-3.8-1.1-1.6-2.1c1.2-0.6,2.5,0.5,3.4,1.1
	c0.6,0,1.2,0,1.8,0c0.3,0.1,0.6,0.2,0.9,0.3c2.9,0.9,5.8,1.8,8.7,2.7c0.6,0,1.2,0,1.8-0.1c0,0,0,0,0,0c1.2,0,2.4,0.1,3.6,0.1
	c0,0,0,0,0,0c7,1.4,14,1.5,21.1,0c7.3-0.4,12.7-2.2,15.1-6c0.2-0.1,0.3-0.1,0.4-0.2c-0.1,0.1-0.3,0.2-0.4,0.2
	c-0.2-1.5-0.5-3.1-0.8-4.6c2.6-0.1,2.9,1.2,4.3,1.6C683.2,72.5,683.2,72.8,683.1,73.2z"/>
<path fill="#F26F3D" d="M311.6,40.1L311.6,40.1c0.6,0,1.1,0,1.7,0v0c0-1.5,0.1-3.1-1.3-4.5c-0.2-0.2-0.4-0.4-0.6-0.5
	C311.5,36.8,311.6,38.4,311.6,40.1z"/>
<path fill="#F3733E" d="M230.3,27c-0.2-1.8-0.8-3.4-5.1-3.3c-1.9,0-4,0.2-4.6,1.3c-1,1.9,1.7,2.6,4.3,3.2c0,0,0,0,0,0
	C226.7,27.8,228.5,27.4,230.3,27z"/>
<path fill="#F3753F" d="M409.7,38.1c-0.4-0.4-1.3-0.6-2.3-1c-0.4,0.6-1,1-0.8,1.4c0.2,0.4,1.1,0.9,1.8,1
	C410,39.5,410.3,38.8,409.7,38.1z"/>
<path fill="#F3753F" d="M400.5,38.8c-1-0.4-1.7-0.8-2.3-0.8c-0.6,0-1.2,0.4-1.8,0.7c0.6,0.3,1.1,0.8,1.7,0.8
	C398.6,39.5,399.4,39.1,400.5,38.8z"/>
<path fill="#F26F3D" d="M317.8,35.2c0.4,0.1,0.9-0.2,1.4-0.4c-0.3-0.3-0.5-0.7-0.8-0.7c-0.4-0.1-0.9,0.2-1.4,0.4
	C317.2,34.7,317.4,35.1,317.8,35.2z"/>
<path fill="#C05530" d="M421,9.1c3.4,0.3,6.7,0.6,10.1,0.7c12.4,0.5,24.2-0.1,33.1-5.5c0,0,0,0,0,0C442.7,7.7,422,6.5,402,1.4
	c0,0,0,0,0,0C405.5,5.9,414.2,6.8,421,9.1z"/>
<path fill="#F3733E" d="M472.2,19.5c0.4-0.7,0.5-1.2-0.7-1.3c-0.4,0-1.2,0.3-1.2,0.6c-0.2,0.4,0.1,0.9,0.1,1.4
	C471.1,19.9,471.8,19.6,472.2,19.5z"/>
</svg>
